<svg xmlns="http://www.w3.org/2000/svg" width="2241" height="3457" preserveAspectRatio="xMidYMid meet" viewBox="0 0 22410 34570"><g fill="#eaf6f4"><path d="M11170 33403 c-112-8-284-39-505-89-920-211-2036-483-2760-674-272-71-629-188-1145-375-367-132-519-197-808-340-193-97-244-127-342-204-114-90-114-90-171-84-65 6-104-8-250-94-112-65-229-118-439-196-277-104-22 11-2755-1247-528-243-1061-487-1184-543-157-71-236-113-263-138-58-55-55-87 48-456 379-1365 642-2125 969-2808 133-278 168-369 215-557 15-64 42-145 59-180 41-86 129-199 170-220 18-9 39-25 47-36 8-11 46-41 85-67 58-38 955-537 1304-725 44-23 139-75 210-115 72-39 220-122 330-182 110-61 247-137 305-169 58-31 139-76 180-99 41-23 606-334 1255-692 649-357 1230-677 1290-710 61-33 196-108 300-165 105-58 287-158 405-223 118-65 258-141 310-170 251-138 1713-944 2085-1150 507-281 524-289 622-317 140-39 191-35 1688 130 1733 192 2527 278 4155 452 718 77 1334 147 1369 155 123 30 198 82 264 183 24 37 106 195 182 352 76 157 254 518 396 802 150 300 259 529 259 545 0 39 71 177 187 366 47 74 237 461 403 817 121 260 352 725 505 1015 23 44 84 161 135 260 51 99 114 221 140 270 43 82 207 398 410 790 254 491 441 872 473 965 20 58 62 186 92 285 64 204 114 328 245 606 164 347 280 653 280 740 0 39-30 96-72 136-21 20-409 219-1063 545-1080 539-1245 624-1533 792-778 453-916 517-1817 846-588 215-835 315-1171 476-77 37-179 86-229 109-49 23-171 82-270 130-165 79-722 337-805 372-19 9-91 42-159 74-68 32-125 59-128 59-9 0-460 229-615 312-429 230-764 322-1318 358-91 6-302 24-470 40-168 17-363 34-434 40-118 9-558 11-666 3z m-4427-2174 c81-60 285-178 1637-944 880-498 1390-785 1466-823 122-62 153-65 514-59 179 4 748 24 1265 46 1544 66 1853 76 1904 62 53-15 86-46 101-97 17-58 34-961 19-1016-14-53-71-111-124-129-29-9-138-13-385-15-190-2-631-14-980-28-1200-49-1571-51-2159-11-272 19-379 41-506 105-49 25-340 198-645 385-966 590-2663 1635-2697 1661-59 45-36 98 74 173 32 22 32 22 8 68-14 25-25 54-25 63 0 32 43 73 107 102 35 15 63 30 63 32 0 2-16 30-35 62-61 101-41 138 86 163 32 7 59 15 59 19 0 4-20 38-44 77-25 38-44 71-42 72 5 6 232 91 244 92 7 1 50-26 95-60z m1183-3625 c67-18 109-61 126-128 10-40 13-204 13-756 0-639-2-710-17-761-24-78-55-119-111-147-69-36-203-38-757-13-256 12-569 25-695 30-253 8-287 16-329 74-21 28-21 38-24 811-2 782-2 782 21 826 16 30 37 51 68 68 44 24 44 24 849 17 652-5 815-9 856-21z m7986-2707 c64-31 98-71 123-142 21-61 21-135 1-410-21-290-33-474-56-875-11-190-24-362-30-382-15-51-54-95-98-110-50-17-1952-25-2027-8-68 15-134 65-165 126-24 49-24 49-23 364 1 288 2 322 22 394 23 88 26 159 10 251-10 58-9 67 25 168 38 114 56 246 56 421 0 102 13 156 46 186 53 50 30 49 1079 47 980-2 980-2 1037-30z"/></g></svg>