<svg xmlns="http://www.w3.org/2000/svg" width="2241px" height="3457px" viewBox="0 0 22410 34570" preserveAspectRatio="xMidYMid meet"><g fill="#65d4ba"><path d="M11170 33403 c-112-8-284-39-505-89-920-211-2036-483-2760-674-272-71-629-188-1145-375-367-132-519-197-808-340-193-97-244-127-342-204-114-90-114-90-171-84-65 6-104-8-250-94-112-65-229-118-439-196-277-104-22 11-2755-1247-528-243-1061-487-1184-543-157-71-236-113-263-138-58-55-55-87 48-456 379-1365 642-2125 969-2808 132-275 170-374 211-543 32-137 61-205 126-298 54-79 140-156 257-231 47-30 1015-567 1286-713 44-23 139-75 210-115 72-39 220-122 330-182 110-61 247-137 305-169 58-31 139-76 180-99 41-23 606-334 1255-692 649-357 1230-677 1290-710 61-33 196-108 300-165 105-58 287-158 405-223 118-65 258-141 310-170 251-138 1713-944 2085-1150 507-281 524-289 622-317 140-39 191-35 1688 130 1733 192 2527 278 4155 452 718 77 1334 147 1369 155 123 30 198 82 264 183 24 37 106 195 182 352 76 157 254 518 396 802 150 300 259 529 259 545 0 39 71 177 187 366 47 74 237 461 403 817 121 260 352 725 505 1015 23 44 84 161 135 260 51 99 114 221 140 270 43 82 207 398 410 790 254 491 441 872 473 965 20 58 62 186 92 285 64 204 114 328 245 606 164 347 280 653 280 740 0 39-30 96-72 136-21 20-409 219-1063 545-1080 539-1245 624-1533 792-778 453-916 517-1817 846-588 215-835 315-1171 476-77 37-179 86-229 109-49 23-171 82-270 130-165 79-722 337-805 372-19 9-91 42-159 74-68 32-125 59-128 59-9 0-460 229-615 312-429 230-764 322-1318 358-91 6-302 24-470 40-168 17-363 34-434 40-118 9-558 11-666 3z m-4427-2174 c81-60 285-178 1637-944 880-498 1390-785 1466-823 122-62 153-65 514-59 179 4 748 24 1265 46 1544 66 1853 76 1904 62 53-15 86-46 101-97 17-58 34-961 19-1016-14-53-71-111-124-129-29-9-138-13-385-15-190-2-631-14-980-28-1200-49-1571-51-2159-11-272 19-379 41-506 105-49 25-340 198-645 385-966 590-2663 1635-2697 1661-59 45-36 98 74 173 32 22 32 22 8 68-14 25-25 54-25 63 0 32 43 73 107 102 35 15 63 30 63 32 0 2-16 30-35 62-61 101-41 138 86 163 32 7 59 15 59 19 0 4-20 38-44 77-25 38-44 71-42 72 5 6 232 91 244 92 7 1 50-26 95-60z m1183-3625 c67-18 109-61 126-128 10-40 13-204 13-756 0-639-2-710-17-761-24-78-55-119-111-147-69-36-203-38-757-13-256 12-569 25-695 30-253 8-287 16-329 74-21 28-21 38-24 811-2 782-2 782 21 826 16 30 37 51 68 68 44 24 44 24 849 17 652-5 815-9 856-21z m7986-2707 c64-31 98-71 123-142 21-61 21-135 1-410-21-290-33-474-56-875-11-190-24-362-30-382-15-51-54-95-98-110-50-17-1952-25-2027-8-68 15-134 65-165 126-24 49-24 49-23 364 1 288 2 322 22 394 23 88 26 159 10 251-10 58-9 67 25 168 38 114 56 246 56 421 0 102 13 156 46 186 53 50 30 49 1079 47 980-2 980-2 1037-30z"/><path d="M1790 25015 c0-17 235-725 257-775 13-30 33-93 44-140 11-47 31-109 44-139 20-42 25-70 25-133 0-71 3-84 29-121 16-23 38-50 49-61 12-10 26-33 32-52 6-18 27-46 45-63 68-59 320-197 470-256 39-15 91-38 118-51 43-22 47-27 40-52-12-48-36 23 217-632 77-201 189-489 247-640 58-151 134-347 168-435 72-186 268-693 455-1180 72-187 150-387 172-444 42-105 42-105 44-270 1-91 7-188 13-216 18-76 66-214 112-317 22-51 75-181 119-288 43-107 151-368 240-580 335-796 423-1010 650-1575 354-886 475-1171 591-1401 95-188 136-286 294-699 47-122 163-423 340-880 64-165 125-322 135-350 15-42 155-405 260-675 16-41 37-102 46-135 9-33 22-67 29-75 7-8 27-53 45-100 18-47 61-159 96-250 116-298 124-319 124-338 0-24-82-228-200-497-136-309-143-328-144-415 0-65 4-84 32-144 18-38 74-125 126-195 99-134 213-305 343-516 233-378 457-745 728-1195 256-424 268-443 303-463 33-19 33-19 26 9-10 43 3 26 111-141 97-150 97-150 91-206-5-51-3-61 23-96 31-43 65-69 105-79 25-6 34-19 189-284 28-47 62-105 77-130 15-25 87-146 160-270 166-280 599-1003 750-1250 62-102 125-205 140-230 27-46 209-341 342-555 83-134 229-372 354-575 138-227 403-685 499-865 26-49 65-121 85-160 21-38 75-142 120-230 253-490 465-824 684-1079 40-46 99-141 183-295 68-124 134-237 147-251 13-14 67-110 120-215 106-207 133-248 175-269 22-12 34-33 59-102 20-56 28-90 22-94-10-6 57-123 206-360 98-156 80-153 194-39 100 100 100 101 91 135-9 31-8 34 13 34 33 0 88 40 108 78 15 30 17 32 27 15 10-16 14-15 47 22 20 22 44 51 53 65 22 35 189 249 220 283 13 15 26 37 28 48 2 12 12 34 23 49 10 15 23 45 28 67 5 23 23 58 40 79 55 69 102 157 102 190 0 17 8 42 18 55 31 40 33 58 16 138-8 42-37 183-64 313-27 131-54 247-60 257-5 11-10 34-10 51 0 17-36 207-81 423-44 215-109 534-145 707-36 173-84 412-109 530-24 118-58 283-75 365-17 83-51 247-75 365-24 118-73 359-110 535-36 176-76 374-90 440-13 66-54 264-90 440-36 176-101 493-145 705-43 212-93 453-110 535-17 83-42 204-55 270-13 66-47 230-75 365-28 135-64 310-80 390-16 80-54 263-84 408-63 301-65 254 27 457 29 66 93 206 140 311 48 106 87 203 87 217 0 14 11 39 25 55 13 16 41 65 61 108 20 43 49 108 66 144 16 36 50 110 75 165 25 55 54 119 64 142 264 584 564 1293 762 1803 150 386 246 664 413 1193 280 890 286 906 400 1098 103 174 138 258 183 436 51 203 64 237 166 453 88 185 387 881 510 1185 40 99 123 315 185 480 276 738 427 1074 645 1445 53 91 151 275 217 410 369 754 368 751 565 992 145 176 200 253 241 333 16 33 41 72 56 88 14 15 95 144 181 288 153 257 155 260 139 285-16 23-21 25-68 19-28-3-190-19-361-36-501-49-3123-341-3840-428-1129-137-1403-167-2422-266-408-39-467-43-505-31-73 22-2358 1277-5743 3154-2101 1165-2074 1150-2370 1309-558 300-583 312-725 333-41 6-87 13-102 16-16 3-28 2-28-1z"/></g></svg>